PathFileType	4	(X/Y/Z)	path1_09_0-927.trc
DataRate	CameraRate	NumFrames	NumMarkers	Units	OrigDataRate	OrigDataStartFrame	OrigNumFrames
30	30	9	22	m	30	579	927
Frame#	Time	Hip			RHip			RKnee			RAnkle			RBigToe			RSmallToe			RHeel			LHip			LKnee			LAnkle			LBigToe			LSmallToe			LHeel			Neck			Head			Nose			RShoulder			RElbow			RWrist			LShoulder			LElbow			LWrist		
		X1	Y1	Z1	X2	Y2	Z2	X3	Y3	Z3	X4	Y4	Z4	X5	Y5	Z5	X6	Y6	Z6	X7	Y7	Z7	X8	Y8	Z8	X9	Y9	Z9	X10	Y10	Z10	X11	Y11	Z11	X12	Y12	Z12	X13	Y13	Z13	X14	Y14	Z14	X15	Y15	Z15	X16	Y16	Z16	X17	Y17	Z17	X18	Y18	Z18	X19	Y19	Z19	X20	Y20	Z20	X21	Y21	Z21	X22	Y22	Z22
580	19.33333333333333	-1.3723464606762688	0.8250445750123362	0.2337917985740089	-1.3422913570185562	0.8195868450727968	0.31774833155950893	-1.1901670253350074	0.5217591656998789	0.31111620958126607	-1.276806202640237	0.15808233535194444	0.3091331191872718	-1.117769758202857	0.05665438701872815	0.3296266804220611	-1.1546756079859635	0.053915787139743925	0.38033077126765413	-1.323536301129718	0.09592968258303669	0.3113859559448113	-1.3832220826264363	0.8093841788030769	0.1565581587025366	-1.4044098144065682	0.46753767034692645	0.15467799828931902	-1.4829458537109204	0.1043350134077443	0.15575941870191723	-1.3067878976410223	0.014696042985071394	0.20202510166881102	-1.3404948773959784	0.01701659898612576	0.14675586466500523	-1.524678565049809	0.03246101329336743	0.17194639901752506	-1.3333982396705581	1.443816660155238	0.188086971595804	-1.2395213743878568	1.7149815845353913	0.21148335514794692	-1.170514967019081	1.557174802821059	0.21738840225335787	-1.3897444613878427	1.3533915174739777	0.35459469365497365	-1.3592757628989585	1.0592457093251488	0.43027386616356106	-1.279135779237573	0.8689816878500304	0.45907371176291434	-1.3738244131838442	1.3445555283283803	-0.010311593730794944	-1.2789721024138796	1.068045990188765	0.009119047362635555	-1.2024190427888106	0.8850082533099082	-0.005585321782741656
581	19.366666666666667	-1.3426601357617147	0.8226134716508557	0.2333567063143185	-1.3080349822074018	0.8167907500936865	0.3161176088894227	-1.1638736599263835	0.5221917199010645	0.3073373520546119	-1.1905866902296565	0.14562733530038977	0.30924160765125247	-1.0157072468283217	0.07152111426904874	0.32927098726728543	-1.0511866618757457	0.06271544835823646	0.3796082443715122	-1.2276346204504118	0.07837918868712915	0.30989038273490654	-1.3580919712818953	0.8056965516735798	0.1578249058395265	-1.3966530403458282	0.4665124828210547	0.15105348118242987	-1.481948058447001	0.10203440753962953	0.15466098649622512	-1.307325652546139	0.01598958582385611	0.20203512933887954	-1.3408248391079427	0.01625433331269018	0.14939827053089233	-1.5255782908229372	0.029581770720803226	0.17492484541673453	-1.3057130496623377	1.4407585478215004	0.18843593460407493	-1.2114164609123161	1.7113199328809294	0.21278256956861388	-1.1530914890311663	1.5577786901823518	0.21522859445356596	-1.362149584919928	1.3487431198018753	0.35910734734092586	-1.3332988063496567	1.055969146244129	0.4292843405091534	-1.257660129442947	0.8650879672078544	0.4614080842694266	-1.3445560745509328	1.341870630516904	-0.00862481616790248	-1.2489636532948118	1.0660998249587226	0.010892142150112666	-1.1713213346362148	0.8856682926108617	-0.007116019870795043
582	19.4	-1.3120844526548214	0.8191167595395286	0.23404556249849312	-1.2744602706452297	0.812699364883484	0.31519018625323464	-1.138508916146715	0.5185740401748478	0.3031451369737968	-1.1098763129226195	0.1346551557761377	0.3079087083363917	-0.9252273852800601	0.08772737589634477	0.3272464549241842	-0.9581547074000375	0.07351066896055074	0.3769676513599267	-1.1378220244325956	0.06358289483669108	0.304383741591088	-1.3311745319478305	0.8009036630774756	0.15994069786057993	-1.3860188213140556	0.46479452434144963	0.15117613204898858	-1.480586080335479	0.10070789468771225	0.15493666456300845	-1.30814017447127	0.018780933747024296	0.20065509028095624	-1.3412627257058753	0.01685266990415175	0.1506949077889958	-1.5265221776632016	0.027734075556139985	0.17773191078564604	-1.2767294143640573	1.437620275503407	0.1899142412402211	-1.181788705571026	1.7038997256589112	0.21435227874670842	-1.130717221718238	1.556589606241721	0.2128813268339683	-1.3328910987681124	1.343800963361908	0.3642403548291145	-1.306850413662554	1.0523255619239449	0.4290414633016811	-1.2361668512296182	0.8601311521919581	0.4641444485133269	-1.3143030816159937	1.3392692220671338	-0.005282600372010986	-1.220550475950056	1.063263955149687	0.013898407864650282	-1.1417899311335464	0.8846402744469214	-0.007564273524552284
583	19.433333333333334	-1.2807369160314364	0.8151067221625117	0.2357156946306646	-1.2412867682966748	0.8079825599211996	0.31529875103201693	-1.1118903599421295	0.5126862363757453	0.2991926291227967	-1.0384308420221495	0.125565978605471	0.30518408238503913	-0.8497193131596809	0.10179675443721788	0.32328973642720416	-0.8798599881921376	0.08344770512284583	0.37282141545121167	-1.0591239492833382	0.05162990360225983	0.29641551396966315	-1.3024704961219837	0.7956315576961228	0.1625049857068764	-1.3714086486790376	0.4624653740963688	0.15432990425769105	-1.4787933383105758	0.10086731973283133	0.15582001388660469	-1.309504832952234	0.02182688030035725	0.19755643778718346	-1.3417603388272596	0.018099259075120784	0.15096384649062666	-1.527084207380064	0.027796129308629115	0.17957331852504888	-1.2466268078639653	1.4345534833939912	0.19253926215266162	-1.151291861890536	1.6946100417032144	0.21606076965200982	-1.103898750910607	1.553960018779023	0.21093424799225347	-1.302145104966149	1.3393478428473211	0.3679169955875332	-1.280375813991822	1.048694920921152	0.4291014506312491	-1.2135559411564485	0.8545860355301065	0.466678082750478	-1.28329014645303	1.3368219628345712	-0.0008225349207317869	-1.192879629625931	1.0600131489829556	0.017656393047251764	-1.1128546611686967	0.8820775215303894	-0.005921102319225194
584	19.466666666666665	-1.2482435760844157	0.8112311783063213	0.23806681960185094	-1.2077107339297026	0.8033684611494594	0.3164425707602454	-1.0825450320990329	0.5068524686738666	0.296080099842285	-0.9795056041825593	0.11824779533435918	0.3018172326183658	-0.7906954557349289	0.11029393944413929	0.3178753536621216	-0.8186660879255511	0.08939490809136408	0.36806792053494275	-0.9957732775801559	0.04262937381229349	0.2883124616345716	-1.271665812966963	0.7905552538883485	0.16506796060408868	-1.3517341819121704	0.45955190214689834	0.15937403657141003	-1.4761549257053015	0.10286527265752411	0.1567642554111585	-1.3115127493522616	0.023834961353763954	0.19308179493480143	-1.341841750538397	0.019044443632524666	0.15114512717764245	-1.5267506158724993	0.03050104718212603	0.18048368240516507	-1.2156595940866453	1.4317153986497877	0.19611365621665106	-1.1205195398211112	1.6858133638508277	0.21806020176547194	-1.0739220151014335	1.5505193249862284	0.21025323341249844	-1.2702363488581845	1.3358894515566564	0.3687951454818814	-1.2545247649809457	1.0456052176066732	0.4289115409653692	-1.1890574372165148	0.8489840621734035	0.4685621894884694	-1.2517059967902413	1.3345068602497803	0.004219074217809846	-1.1654325309793163	1.05653205213655	0.021793272265021042	-1.0845859273628389	0.8782585357416289	-0.0025472343539147636
585	19.5	-1.2138635099410038	0.8081647288253322	0.24090152463950626	-1.1728526977554499	0.7995665684662545	0.31846142692409574	-1.050142886539493	0.5028512265228338	0.29419364755667043	-0.934671641666927	0.11211472420487831	0.29877685405737797	-0.7477254881934541	0.1109731386078611	0.3119054043198951	-0.7745076590428644	0.08913151008772757	0.36342244367699345	-0.9495652424319486	0.03627474325288424	0.2817253444605116	-1.238186967643009	0.7864323048537308	0.16748805343028816	-1.3259319845656843	0.4561243884527381	0.1651881005334893	-1.4717564179744516	0.10711599009524711	0.1574334577676813	-1.3138894886753183	0.024350406916942454	0.18804200870362603	-1.3408408211703375	0.019470973363207973	0.1520729829571217	-1.524716576113018	0.03665517204954014	0.1807250432474441	-1.1840478773571692	1.4292833111794563	0.20037992965165408	-1.0898573276969892	1.6801375462922732	0.22049674767749292	-1.0420860285113718	1.5470007446763447	0.2117243349650805	-1.2375728894746019	1.3334173139435055	0.3678121052877668	-1.2297297475794882	1.0435674388915743	0.42803693971787976	-1.1624123515033977	0.8438864608088068	0.4700113862522589	-1.2195781733408486	1.3324401093205214	0.009555454924208182	-1.1380132211248517	1.0529625682913737	0.025961819233356467	-1.0581305473696692	0.873707138593034	0.0009329377094192927
586	19.53333333333333	-1.1770660638169996	0.8064669899940057	0.2441553404169442	-1.1363178211038472	0.7970958230807785	0.32122687437300107	-1.0154643836252877	0.5013082201301521	0.29375251040022565	-0.9032878129381486	0.10669719276980942	0.2967748055094094	-0.7187154027997861	0.1037700492568733	0.30620270734051824	-0.7451506099394034	0.08238424013273375	0.35921683188934966	-0.9194012577191315	0.03201853020208722	0.2772472037560398	-1.2016798145917693	0.783913540111349	0.16992481980291763	-1.293104044303458	0.4525242635558267	0.17059787978629312	-1.464222690741944	0.11411244523228783	0.1576640112878539	-1.3160858627381051	0.023726480941875613	0.18345019876183472	-1.3382213734805783	0.02006841548160873	0.15360882001215517	-1.5196314220383487	0.04738170259525421	0.18032711125434867	-1.151920389318339	1.4275071431212414	0.205132125042752	-1.059362917577976	1.679024828568368	0.22362812937224513	-1.0093408724524304	1.544203895539948	0.21589922526384475	-1.2044451191086043	1.331727818681565	0.36702883694170885	-1.2056127820793534	1.0428306683893065	0.4264840866314716	-1.1334442368418471	0.8397007795939533	0.4715987049974774	-1.186867988692981	1.3309553978577175	0.015135654097314502	-1.110830676837024	1.0496026598579813	0.029777353739493497	-1.0342525076171771	0.8690963213739824	0.0032666597771277817
587	19.566666666666663	-1.138101225966258	0.8064668441984518	0.24773953922824926	-1.098446948981197	0.7961901793944798	0.3246857250836224	-0.9799353762610162	0.5017587921567805	0.2948306688475963	-0.8829808384999243	0.10199636358309752	0.2961102020960049	-0.7005928510393139	0.0908890782390468	0.30106205614181186	-0.7271470766210062	0.07094070291993043	0.355518379383441	-0.9022284064680728	0.02947553657914064	0.2749825907872058	-1.162433909621996	0.7833688163562776	0.17255553897672746	-1.2526900231259324	0.44947909043496054	0.1741457675767138	-1.4518254647129376	0.12430220076040252	0.15744057402476425	-1.317677449189769	0.0227637270410798	0.18005046399535984	-1.3336635471788896	0.021864223756280953	0.15471527842701527	-1.5095607515439806	0.06401895794947647	0.1792923759421382	-1.119319108646601	1.4267362900923255	0.2102385283811181	-1.028812833273426	1.6816471612180834	0.2278573678442268	-0.976244924260774	1.542881542604736	0.2226646912443641	-1.17091504514895	1.3308180718896427	0.36779688957895235	-1.180614819547357	1.0432562314142235	0.42487763977725085	-1.1019527049031907	0.8365582964203865	0.4736838327079096	-1.1536818241453906	1.3304882625516232	0.02091322226101236	-1.0844800890557547	1.0469299841929312	0.03277657759083674	-1.0123703337716248	0.865007467384133	0.004682963780795054
588	19.6	-1.0980287789330623	0.8082175955845102	0.2514608800111073	-1.060168520895746	0.7968842978261844	0.3287883859138172	-0.9452133437288267	0.5030877501882404	0.2972549782190178	-0.8707852314072873	0.09835749888650949	0.29669379690483033	-0.6902184125757472	0.07580553865924809	0.29635290159582645	-0.7170641853550184	0.05784086647025202	0.3523413727434231	-0.8943226784966345	0.028387395585189733	0.27482471288892574	-1.121281197739087	0.7848826653038503	0.17538477681919878	-1.2045047443319976	0.447882493511876	0.1746100326408663	-1.4325606987188875	0.13792415964497529	0.15694528784407366	-1.3180170928840078	0.02253117228908339	0.1779449723569907	-1.3268200614064851	0.025608721795475138	0.15435924793998218	-1.4922147957043965	0.08744817170680291	0.17792263510192688	-1.086294987494496	1.4272831530708385	0.21564215344727639	-0.9979731016750529	1.685978015374098	0.23324473132064133	-0.9431058610669713	1.543473943878524	0.23112469940002833	-1.1369742153596383	1.3308575647850927	0.370445953605405	-1.152716186532972	1.0444808685981002	0.42414886876526775	-1.0683811067350506	0.8345478203640598	0.4762413783658777	-1.1203325038906375	1.3313751655400505	0.0267258739321271	-1.059736564506296	1.0454480962821096	0.03449189417893862	-0.9910676442966626	0.8617512969530106	0.00649130765667728
